<?xml version="1.0" encoding="iso-8859-1"?>
<!-- Generator: Adobe Illustrator 16.0.0, SVG Export Plug-In . SVG Version: 6.00 Build 0)  -->
<!DOCTYPE svg PUBLIC "-//W3C//DTD SVG 1.1//EN" "http://www.w3.org/Graphics/SVG/1.1/DTD/svg11.dtd">
<svg version="1.1" id="Capa_1" xmlns="http://www.w3.org/2000/svg" xmlns:xlink="http://www.w3.org/1999/xlink" x="0px" y="0px"
	 width="798px" height="798px" viewBox="0 0 798 798" style="enable-background:new 0 0 798 798;" xml:space="preserve">
<g>
	<path d="M798,764v-10c0-13.8-11.2-25-25-25h-56V296.5c0-13.8-11.2-25-25-25h-72.9c-13.8,0-25,11.2-25,25V729H554V263.5
		c0-13.8-11.2-25-25-25h-72.9c-13.8,0-25,11.2-25,25V729H391.7V392.6c0-13.8-11.2-25-25-25h-72.9c-13.8,0-25,11.2-25,25V729H230.4
		V525c0-13.8-11.2-25-25-25h-72.9c-13.8,0-25,11.2-25,25v204H60V34C60,20.2,48.8,9,35,9H25C11.2,9,0,20.2,0,34v730
		c0,13.8,11.2,25,25,25h748C786.8,789,798,777.8,798,764z"/>
</g>
<g>
</g>
<g>
</g>
<g>
</g>
<g>
</g>
<g>
</g>
<g>
</g>
<g>
</g>
<g>
</g>
<g>
</g>
<g>
</g>
<g>
</g>
<g>
</g>
<g>
</g>
<g>
</g>
<g>
</g>
</svg>
